<mxfile host="app.diagrams.net" modified="2021-04-01T06:53:23.649Z" agent="5.0 (Macintosh; Intel Mac OS X 10_15_7) AppleWebKit/537.36 (KHTML, like Gecko) Chrome/86.0.4240.193 Safari/537.36" etag="jFvyEHawzt-u1802w4wa" version="14.5.4" type="github">
  <diagram id="EA8M5BCqdz6qAtu27PJy" name="Page-1">
    <mxGraphModel dx="946" dy="536" grid="1" gridSize="10" guides="1" tooltips="1" connect="1" arrows="1" fold="1" page="1" pageScale="1" pageWidth="827" pageHeight="1169" math="0" shadow="0">
      <root>
        <mxCell id="0" />
        <mxCell id="1" parent="0" />
        <mxCell id="g1RtRSkKBzSGe0u6mkAF-17" style="edgeStyle=orthogonalEdgeStyle;rounded=0;orthogonalLoop=1;jettySize=auto;html=1;exitX=0.5;exitY=1;exitDx=0;exitDy=0;entryX=0.5;entryY=0;entryDx=0;entryDy=0;" parent="1" source="g1RtRSkKBzSGe0u6mkAF-1" target="g1RtRSkKBzSGe0u6mkAF-2" edge="1">
          <mxGeometry relative="1" as="geometry" />
        </mxCell>
        <mxCell id="g1RtRSkKBzSGe0u6mkAF-1" value="BeanDefinition注册阶段" style="rounded=1;whiteSpace=wrap;html=1;fillColor=#dae8fc;strokeColor=#6c8ebf;" parent="1" vertex="1">
          <mxGeometry x="190" y="110" width="160" height="60" as="geometry" />
        </mxCell>
        <mxCell id="g1RtRSkKBzSGe0u6mkAF-18" style="edgeStyle=orthogonalEdgeStyle;rounded=0;orthogonalLoop=1;jettySize=auto;html=1;exitX=0.5;exitY=1;exitDx=0;exitDy=0;entryX=0.5;entryY=0;entryDx=0;entryDy=0;" parent="1" source="g1RtRSkKBzSGe0u6mkAF-2" target="g1RtRSkKBzSGe0u6mkAF-4" edge="1">
          <mxGeometry relative="1" as="geometry" />
        </mxCell>
        <mxCell id="g1RtRSkKBzSGe0u6mkAF-2" value="BeanDefinition合并阶段" style="rounded=1;whiteSpace=wrap;html=1;fillColor=#dae8fc;strokeColor=#6c8ebf;" parent="1" vertex="1">
          <mxGeometry x="190" y="200" width="160" height="60" as="geometry" />
        </mxCell>
        <mxCell id="g1RtRSkKBzSGe0u6mkAF-19" style="edgeStyle=orthogonalEdgeStyle;rounded=0;orthogonalLoop=1;jettySize=auto;html=1;entryX=0.5;entryY=0;entryDx=0;entryDy=0;" parent="1" source="g1RtRSkKBzSGe0u6mkAF-4" target="g1RtRSkKBzSGe0u6mkAF-5" edge="1">
          <mxGeometry relative="1" as="geometry" />
        </mxCell>
        <mxCell id="Llov8eVF90AyNkguM5eZ-1" style="edgeStyle=orthogonalEdgeStyle;rounded=0;orthogonalLoop=1;jettySize=auto;html=1;exitX=0;exitY=0.5;exitDx=0;exitDy=0;entryX=0;entryY=0.5;entryDx=0;entryDy=0;" edge="1" parent="1" source="g1RtRSkKBzSGe0u6mkAF-4" target="g1RtRSkKBzSGe0u6mkAF-14">
          <mxGeometry relative="1" as="geometry">
            <Array as="points">
              <mxPoint x="70" y="330" />
              <mxPoint x="70" y="1310" />
            </Array>
          </mxGeometry>
        </mxCell>
        <mxCell id="g1RtRSkKBzSGe0u6mkAF-4" value="Bean 实例化前阶段" style="rounded=1;whiteSpace=wrap;html=1;fillColor=#d5e8d4;strokeColor=#82b366;" parent="1" vertex="1">
          <mxGeometry x="190" y="300" width="160" height="60" as="geometry" />
        </mxCell>
        <mxCell id="g1RtRSkKBzSGe0u6mkAF-20" style="edgeStyle=orthogonalEdgeStyle;rounded=0;orthogonalLoop=1;jettySize=auto;html=1;entryX=0.5;entryY=0;entryDx=0;entryDy=0;" parent="1" source="g1RtRSkKBzSGe0u6mkAF-5" target="g1RtRSkKBzSGe0u6mkAF-6" edge="1">
          <mxGeometry relative="1" as="geometry" />
        </mxCell>
        <mxCell id="g1RtRSkKBzSGe0u6mkAF-5" value="Bean 实例化阶段" style="rounded=1;whiteSpace=wrap;html=1;fillColor=#d5e8d4;strokeColor=#82b366;" parent="1" vertex="1">
          <mxGeometry x="190" y="400" width="160" height="60" as="geometry" />
        </mxCell>
        <mxCell id="g1RtRSkKBzSGe0u6mkAF-24" style="edgeStyle=orthogonalEdgeStyle;rounded=0;orthogonalLoop=1;jettySize=auto;html=1;" parent="1" source="g1RtRSkKBzSGe0u6mkAF-6" target="g1RtRSkKBzSGe0u6mkAF-7" edge="1">
          <mxGeometry relative="1" as="geometry" />
        </mxCell>
        <mxCell id="g1RtRSkKBzSGe0u6mkAF-6" value="Bean 实例化后阶段" style="rounded=1;whiteSpace=wrap;html=1;fillColor=#d5e8d4;strokeColor=#82b366;" parent="1" vertex="1">
          <mxGeometry x="190" y="500" width="160" height="60" as="geometry" />
        </mxCell>
        <mxCell id="g1RtRSkKBzSGe0u6mkAF-27" style="edgeStyle=orthogonalEdgeStyle;rounded=0;orthogonalLoop=1;jettySize=auto;html=1;entryX=0.5;entryY=0;entryDx=0;entryDy=0;endArrow=classic;endFill=1;" parent="1" source="g1RtRSkKBzSGe0u6mkAF-7" target="g1RtRSkKBzSGe0u6mkAF-8" edge="1">
          <mxGeometry relative="1" as="geometry" />
        </mxCell>
        <mxCell id="Llov8eVF90AyNkguM5eZ-2" style="edgeStyle=orthogonalEdgeStyle;rounded=0;orthogonalLoop=1;jettySize=auto;html=1;exitX=0;exitY=0.5;exitDx=0;exitDy=0;endArrow=none;endFill=0;" edge="1" parent="1" source="g1RtRSkKBzSGe0u6mkAF-7">
          <mxGeometry relative="1" as="geometry">
            <mxPoint x="70" y="630" as="targetPoint" />
          </mxGeometry>
        </mxCell>
        <mxCell id="g1RtRSkKBzSGe0u6mkAF-7" value="Bean 属性赋值前阶段" style="rounded=1;whiteSpace=wrap;html=1;fillColor=#ffe6cc;strokeColor=#d79b00;" parent="1" vertex="1">
          <mxGeometry x="190" y="650" width="160" height="60" as="geometry" />
        </mxCell>
        <mxCell id="g1RtRSkKBzSGe0u6mkAF-29" style="edgeStyle=orthogonalEdgeStyle;rounded=0;orthogonalLoop=1;jettySize=auto;html=1;exitX=0.5;exitY=1;exitDx=0;exitDy=0;entryX=0.5;entryY=0;entryDx=0;entryDy=0;endArrow=classic;endFill=1;" parent="1" source="g1RtRSkKBzSGe0u6mkAF-8" target="g1RtRSkKBzSGe0u6mkAF-9" edge="1">
          <mxGeometry relative="1" as="geometry" />
        </mxCell>
        <mxCell id="g1RtRSkKBzSGe0u6mkAF-8" value="Bean 属性赋值阶段" style="rounded=1;whiteSpace=wrap;html=1;fillColor=#ffe6cc;strokeColor=#d79b00;" parent="1" vertex="1">
          <mxGeometry x="190" y="750" width="160" height="60" as="geometry" />
        </mxCell>
        <mxCell id="g1RtRSkKBzSGe0u6mkAF-30" style="edgeStyle=orthogonalEdgeStyle;rounded=0;orthogonalLoop=1;jettySize=auto;html=1;entryX=0.5;entryY=0;entryDx=0;entryDy=0;endArrow=classic;endFill=1;" parent="1" source="g1RtRSkKBzSGe0u6mkAF-9" target="g1RtRSkKBzSGe0u6mkAF-10" edge="1">
          <mxGeometry relative="1" as="geometry" />
        </mxCell>
        <mxCell id="g1RtRSkKBzSGe0u6mkAF-9" value="Bean Aware接口回调阶段" style="rounded=1;whiteSpace=wrap;html=1;fillColor=#ffe6cc;strokeColor=#d79b00;" parent="1" vertex="1">
          <mxGeometry x="190" y="860" width="160" height="60" as="geometry" />
        </mxCell>
        <mxCell id="g1RtRSkKBzSGe0u6mkAF-31" style="edgeStyle=orthogonalEdgeStyle;rounded=0;orthogonalLoop=1;jettySize=auto;html=1;exitX=0.5;exitY=1;exitDx=0;exitDy=0;entryX=0.5;entryY=0;entryDx=0;entryDy=0;endArrow=classic;endFill=1;" parent="1" source="g1RtRSkKBzSGe0u6mkAF-10" target="g1RtRSkKBzSGe0u6mkAF-11" edge="1">
          <mxGeometry relative="1" as="geometry" />
        </mxCell>
        <mxCell id="g1RtRSkKBzSGe0u6mkAF-10" value="Bean 初始化前阶段" style="rounded=1;whiteSpace=wrap;html=1;fillColor=#ffe6cc;strokeColor=#d79b00;" parent="1" vertex="1">
          <mxGeometry x="190" y="970" width="160" height="60" as="geometry" />
        </mxCell>
        <mxCell id="g1RtRSkKBzSGe0u6mkAF-32" style="edgeStyle=orthogonalEdgeStyle;rounded=0;orthogonalLoop=1;jettySize=auto;html=1;entryX=0.5;entryY=0;entryDx=0;entryDy=0;endArrow=classic;endFill=1;" parent="1" source="g1RtRSkKBzSGe0u6mkAF-11" target="g1RtRSkKBzSGe0u6mkAF-13" edge="1">
          <mxGeometry relative="1" as="geometry" />
        </mxCell>
        <mxCell id="g1RtRSkKBzSGe0u6mkAF-11" value="Bean 初始化阶段" style="rounded=1;whiteSpace=wrap;html=1;fillColor=#ffe6cc;strokeColor=#d79b00;" parent="1" vertex="1">
          <mxGeometry x="190" y="1080" width="160" height="60" as="geometry" />
        </mxCell>
        <mxCell id="g1RtRSkKBzSGe0u6mkAF-33" style="edgeStyle=orthogonalEdgeStyle;rounded=0;orthogonalLoop=1;jettySize=auto;html=1;entryX=0.5;entryY=0;entryDx=0;entryDy=0;endArrow=classic;endFill=1;" parent="1" source="g1RtRSkKBzSGe0u6mkAF-13" target="g1RtRSkKBzSGe0u6mkAF-14" edge="1">
          <mxGeometry relative="1" as="geometry" />
        </mxCell>
        <mxCell id="g1RtRSkKBzSGe0u6mkAF-13" value="Bean 初始化后阶段" style="rounded=1;whiteSpace=wrap;html=1;fillColor=#ffe6cc;strokeColor=#d79b00;" parent="1" vertex="1">
          <mxGeometry x="190" y="1180" width="160" height="60" as="geometry" />
        </mxCell>
        <mxCell id="g1RtRSkKBzSGe0u6mkAF-34" style="edgeStyle=orthogonalEdgeStyle;rounded=0;orthogonalLoop=1;jettySize=auto;html=1;exitX=0.5;exitY=1;exitDx=0;exitDy=0;entryX=0.5;entryY=0;entryDx=0;entryDy=0;endArrow=classic;endFill=1;" parent="1" source="g1RtRSkKBzSGe0u6mkAF-14" target="g1RtRSkKBzSGe0u6mkAF-15" edge="1">
          <mxGeometry relative="1" as="geometry" />
        </mxCell>
        <mxCell id="g1RtRSkKBzSGe0u6mkAF-14" value="Bean 初始化完成阶段" style="rounded=1;whiteSpace=wrap;html=1;fillColor=#ffe6cc;strokeColor=#d79b00;" parent="1" vertex="1">
          <mxGeometry x="190" y="1280" width="160" height="60" as="geometry" />
        </mxCell>
        <mxCell id="g1RtRSkKBzSGe0u6mkAF-35" value="" style="edgeStyle=orthogonalEdgeStyle;rounded=0;orthogonalLoop=1;jettySize=auto;html=1;endArrow=classic;endFill=1;" parent="1" source="g1RtRSkKBzSGe0u6mkAF-15" target="g1RtRSkKBzSGe0u6mkAF-16" edge="1">
          <mxGeometry relative="1" as="geometry" />
        </mxCell>
        <mxCell id="g1RtRSkKBzSGe0u6mkAF-15" value="Bean 销毁前阶段" style="rounded=1;whiteSpace=wrap;html=1;fillColor=#fff2cc;strokeColor=#d6b656;" parent="1" vertex="1">
          <mxGeometry x="190" y="1390" width="160" height="60" as="geometry" />
        </mxCell>
        <mxCell id="g1RtRSkKBzSGe0u6mkAF-16" value="Bean 销毁阶段" style="rounded=1;whiteSpace=wrap;html=1;fillColor=#fff2cc;strokeColor=#d6b656;" parent="1" vertex="1">
          <mxGeometry x="190" y="1500" width="160" height="60" as="geometry" />
        </mxCell>
        <mxCell id="g1RtRSkKBzSGe0u6mkAF-21" value="返回为null" style="text;html=1;strokeColor=none;fillColor=none;align=center;verticalAlign=middle;whiteSpace=wrap;rounded=0;" parent="1" vertex="1">
          <mxGeometry x="170" y="370" width="80" height="20" as="geometry" />
        </mxCell>
        <mxCell id="g1RtRSkKBzSGe0u6mkAF-23" value="返回不为null" style="text;html=1;strokeColor=none;fillColor=none;align=center;verticalAlign=middle;whiteSpace=wrap;rounded=0;" parent="1" vertex="1">
          <mxGeometry x="90" y="290" width="80" height="20" as="geometry" />
        </mxCell>
        <mxCell id="g1RtRSkKBzSGe0u6mkAF-26" value="返回false" style="text;html=1;strokeColor=none;fillColor=none;align=center;verticalAlign=middle;whiteSpace=wrap;rounded=0;" parent="1" vertex="1">
          <mxGeometry x="90" y="650" width="80" height="20" as="geometry" />
        </mxCell>
        <mxCell id="g1RtRSkKBzSGe0u6mkAF-28" value="返回true" style="text;html=1;strokeColor=none;fillColor=none;align=center;verticalAlign=middle;whiteSpace=wrap;rounded=0;" parent="1" vertex="1">
          <mxGeometry x="180" y="720" width="80" height="20" as="geometry" />
        </mxCell>
        <mxCell id="g1RtRSkKBzSGe0u6mkAF-37" style="edgeStyle=orthogonalEdgeStyle;rounded=0;orthogonalLoop=1;jettySize=auto;html=1;exitX=0.5;exitY=1;exitDx=0;exitDy=0;entryX=0.5;entryY=0;entryDx=0;entryDy=0;endArrow=classic;endFill=1;" parent="1" source="g1RtRSkKBzSGe0u6mkAF-36" target="g1RtRSkKBzSGe0u6mkAF-1" edge="1">
          <mxGeometry relative="1" as="geometry" />
        </mxCell>
        <mxCell id="g1RtRSkKBzSGe0u6mkAF-36" value="BeanDefinition解析阶段" style="rounded=1;whiteSpace=wrap;html=1;fillColor=#dae8fc;strokeColor=#6c8ebf;" parent="1" vertex="1">
          <mxGeometry x="190" y="20" width="160" height="60" as="geometry" />
        </mxCell>
        <mxCell id="Llov8eVF90AyNkguM5eZ-3" value="XML资源&lt;br&gt;Properties资源&lt;br&gt;Java注解&lt;span style=&quot;color: rgb(79 , 79 , 79) ; font-family: , &amp;#34;sf ui text&amp;#34; , &amp;#34;arial&amp;#34; , &amp;#34;pingfang sc&amp;#34; , &amp;#34;hiragino sans gb&amp;#34; , &amp;#34;microsoft yahei&amp;#34; , &amp;#34;wenquanyi micro hei&amp;#34; , sans-serif ; font-size: 14px ; background-color: rgb(255 , 255 , 255)&quot;&gt;&lt;br&gt;&lt;/span&gt;" style="rounded=1;whiteSpace=wrap;html=1;fillColor=#dae8fc;strokeColor=#6c8ebf;" vertex="1" parent="1">
          <mxGeometry x="400" y="20" width="140" height="60" as="geometry" />
        </mxCell>
        <mxCell id="Llov8eVF90AyNkguM5eZ-5" value="注册到BeanDefinitionRegistry" style="rounded=1;whiteSpace=wrap;html=1;fillColor=#dae8fc;strokeColor=#6c8ebf;" vertex="1" parent="1">
          <mxGeometry x="400" y="110" width="140" height="60" as="geometry" />
        </mxCell>
        <mxCell id="Llov8eVF90AyNkguM5eZ-6" value="注册到BeanDefinitionRegistry" style="rounded=1;whiteSpace=wrap;html=1;fillColor=#dae8fc;strokeColor=#6c8ebf;" vertex="1" parent="1">
          <mxGeometry x="400" y="200" width="140" height="60" as="geometry" />
        </mxCell>
        <mxCell id="Llov8eVF90AyNkguM5eZ-7" value="" style="shape=curlyBracket;whiteSpace=wrap;html=1;rounded=1;rotation=-180;" vertex="1" parent="1">
          <mxGeometry x="600" y="20" width="20" height="240" as="geometry" />
        </mxCell>
        <mxCell id="Llov8eVF90AyNkguM5eZ-8" value="Spring容器启动阶段" style="text;html=1;strokeColor=none;fillColor=none;align=center;verticalAlign=middle;whiteSpace=wrap;rounded=0;" vertex="1" parent="1">
          <mxGeometry x="660" y="130" width="130" height="20" as="geometry" />
        </mxCell>
        <mxCell id="Llov8eVF90AyNkguM5eZ-10" value="&lt;span style=&quot;box-sizing: border-box ; outline: 0px ; overflow-wrap: break-word&quot;&gt;InstantiationAwareBeanPostProcessor#postProcessBeforeInstantiation&lt;br&gt;&lt;span&gt;返回不为空，说明bean已经在这个方法中创建好了，不需要再进行后续的处理了&lt;/span&gt;&lt;br&gt;&lt;/span&gt;" style="rounded=1;whiteSpace=wrap;html=1;fillColor=#dae8fc;strokeColor=#6c8ebf;" vertex="1" parent="1">
          <mxGeometry x="400" y="300" width="460" height="60" as="geometry" />
        </mxCell>
        <mxCell id="Llov8eVF90AyNkguM5eZ-12" value="&lt;span style=&quot;box-sizing: border-box ; outline: 0px ; overflow-wrap: break-word&quot;&gt;&lt;span style=&quot;box-sizing: border-box ; outline: 0px ; overflow-wrap: break-word&quot;&gt;SmartInstantiationAwareBeanPostProcessor#determineCandidateConstructors&lt;br&gt;&lt;/span&gt;&lt;span&gt;选择合适的构造器，如果返回的不为空，则用返回的构造函数实例化Bean，如果返回为null，则用无参数构造函数实例化Bean&lt;/span&gt;&lt;br&gt;&lt;/span&gt;" style="rounded=1;whiteSpace=wrap;html=1;fillColor=#dae8fc;strokeColor=#6c8ebf;" vertex="1" parent="1">
          <mxGeometry x="400" y="400" width="460" height="60" as="geometry" />
        </mxCell>
        <mxCell id="Llov8eVF90AyNkguM5eZ-14" value="&lt;span style=&quot;box-sizing: border-box ; outline: 0px ; overflow-wrap: break-word&quot;&gt;&lt;span style=&quot;box-sizing: border-box ; outline: 0px ; overflow-wrap: break-word&quot;&gt;MergedBeanDefinitionPostProcessor#postProcessMergedBeanDefinition&lt;br&gt;&lt;/span&gt;解析&lt;span&gt;@Autowired，@Value，@Inject，&lt;/span&gt;&lt;span&gt;@Resource，&lt;br&gt;@PostConstruct，@PreDestroy等，并将元信息缓存下来&lt;/span&gt;&lt;br&gt;&lt;/span&gt;" style="rounded=1;whiteSpace=wrap;html=1;fillColor=#dae8fc;strokeColor=#6c8ebf;" vertex="1" parent="1">
          <mxGeometry x="400" y="500" width="460" height="60" as="geometry" />
        </mxCell>
        <mxCell id="Llov8eVF90AyNkguM5eZ-16" value="&lt;span style=&quot;box-sizing: border-box ; outline: 0px ; overflow-wrap: break-word&quot;&gt;&lt;span style=&quot;box-sizing: border-box ; outline: 0px ; overflow-wrap: break-word&quot;&gt;InstantiationAwareBeanPostProcessor#postProcessAfterInstantiation&lt;br&gt;&lt;/span&gt;&lt;span&gt;对象已经被实例化，该实例的属性还未被设置，都是null。该方法返回false，会忽略属性值的设置。返回true，会按正常流程设置属性值&lt;/span&gt;&lt;br&gt;&lt;/span&gt;" style="rounded=1;whiteSpace=wrap;html=1;fillColor=#dae8fc;strokeColor=#6c8ebf;" vertex="1" parent="1">
          <mxGeometry x="400" y="650" width="460" height="60" as="geometry" />
        </mxCell>
        <mxCell id="Llov8eVF90AyNkguM5eZ-18" value="&lt;span style=&quot;box-sizing: border-box ; outline: 0px ; overflow-wrap: break-word&quot;&gt;&lt;span style=&quot;box-sizing: border-box ; outline: 0px ; overflow-wrap: break-word&quot;&gt;InstantiationAwareBeanPostProcessor#postProcessProperties&lt;br&gt;&lt;/span&gt;&lt;span&gt;对属性值进行修改，获取被&lt;/span&gt;&lt;span&gt;@Autowired，@Value，@Resource&lt;br&gt;&lt;/span&gt;标注的元信息（Bean实例化后阶段解析出来了哈），并且注入&lt;br&gt;&lt;/span&gt;" style="rounded=1;whiteSpace=wrap;html=1;fillColor=#dae8fc;strokeColor=#6c8ebf;" vertex="1" parent="1">
          <mxGeometry x="400" y="750" width="460" height="60" as="geometry" />
        </mxCell>
        <mxCell id="Llov8eVF90AyNkguM5eZ-19" value="&lt;span style=&quot;box-sizing: border-box ; outline: 0px ; overflow-wrap: break-word&quot;&gt;&lt;span style=&quot;box-sizing: border-box ; outline: 0px ; overflow-wrap: break-word&quot;&gt;BeanPostProcessor#postProcessBeforeInitialization&lt;br&gt;回掉ApplicationContextAware等接口&lt;br&gt;&lt;/span&gt;&lt;span&gt;执行@PostConstruct标注的方法等&lt;/span&gt;&lt;br&gt;&lt;/span&gt;" style="rounded=1;whiteSpace=wrap;html=1;fillColor=#dae8fc;strokeColor=#6c8ebf;" vertex="1" parent="1">
          <mxGeometry x="400" y="970" width="460" height="60" as="geometry" />
        </mxCell>
        <mxCell id="Llov8eVF90AyNkguM5eZ-21" value="&lt;span style=&quot;box-sizing: border-box ; outline: 0px ; overflow-wrap: break-word&quot;&gt;&lt;div&gt;1.@PostConstruct标注方法&lt;/div&gt;&lt;div&gt;（Bean初始化前阶段执行了，这里再放一次表明这3个方法功能一样）&lt;/div&gt;&lt;div&gt;2. 实现InitializingBean接口的afterPropertiesSet()方法&lt;/div&gt;&lt;div&gt;3. 自定义初始方法&lt;/div&gt;&lt;/span&gt;" style="rounded=1;whiteSpace=wrap;html=1;fillColor=#dae8fc;strokeColor=#6c8ebf;" vertex="1" parent="1">
          <mxGeometry x="400" y="1090" width="460" height="60" as="geometry" />
        </mxCell>
        <mxCell id="Llov8eVF90AyNkguM5eZ-22" value="&lt;span style=&quot;box-sizing: border-box ; outline: 0px ; overflow-wrap: break-word&quot;&gt;&lt;span style=&quot;box-sizing: border-box ; outline: 0px ; overflow-wrap: break-word&quot;&gt;BeanPostProcessor#postProcessBeforeInitialization&lt;br&gt;&lt;/span&gt;&lt;span&gt;执行@PostConstruct标注的方法等&lt;/span&gt;&lt;br&gt;&lt;/span&gt;" style="rounded=1;whiteSpace=wrap;html=1;fillColor=#dae8fc;strokeColor=#6c8ebf;" vertex="1" parent="1">
          <mxGeometry x="400" y="1390" width="460" height="60" as="geometry" />
        </mxCell>
        <mxCell id="Llov8eVF90AyNkguM5eZ-23" value="&lt;span style=&quot;box-sizing: border-box ; outline: 0px ; overflow-wrap: break-word&quot;&gt;&lt;div&gt;1. @PreDestory标注方法&lt;/div&gt;（Bean 销毁前阶段执行了，这里再放一次表明这3个方法功能一样&lt;span&gt;）&lt;/span&gt;&lt;br&gt;&lt;div&gt;2. 实现DisposableBean接口的destory()方法&lt;/div&gt;&lt;div&gt;3. 自定义销毁方法&lt;/div&gt;&lt;/span&gt;" style="rounded=1;whiteSpace=wrap;html=1;fillColor=#dae8fc;strokeColor=#6c8ebf;" vertex="1" parent="1">
          <mxGeometry x="400" y="1500" width="460" height="60" as="geometry" />
        </mxCell>
        <mxCell id="Llov8eVF90AyNkguM5eZ-25" value="&lt;span style=&quot;box-sizing: border-box ; outline: 0px ; overflow-wrap: break-word&quot;&gt;&lt;span style=&quot;box-sizing: border-box ; outline: 0px ; overflow-wrap: break-word&quot;&gt;BeanPostProcessor#postProcessAfterInitialization&lt;/span&gt;&lt;br&gt;&lt;/span&gt;" style="rounded=1;whiteSpace=wrap;html=1;fillColor=#dae8fc;strokeColor=#6c8ebf;" vertex="1" parent="1">
          <mxGeometry x="400" y="1280" width="460" height="60" as="geometry" />
        </mxCell>
        <mxCell id="Llov8eVF90AyNkguM5eZ-26" value="&lt;span style=&quot;box-sizing: border-box ; outline: 0px ; overflow-wrap: break-word&quot;&gt;&lt;div&gt;&lt;span&gt;依次回调如下接口（在2个地方回调）&lt;/span&gt;&lt;br&gt;&lt;/div&gt;&lt;div&gt;BeanNameAware，BeanClassLoaderAware，BeanFactoryAware，EnvironmentAware等&lt;/div&gt;&lt;/span&gt;&lt;span&gt;1. 调用AbstractAutowireCapableBeanFactory#invokeAwareMethods&lt;br&gt;2.&amp;nbsp;&lt;/span&gt;ApplicationContextAwareProcessor#postProcessBeforeInitialization&lt;br&gt;&lt;span&gt;（在Bean初始化前阶段会执行这个方法，放到这里是功能一样）&lt;br&gt;&lt;/span&gt;" style="rounded=1;whiteSpace=wrap;html=1;fillColor=#dae8fc;strokeColor=#6c8ebf;" vertex="1" parent="1">
          <mxGeometry x="400" y="855" width="500" height="70" as="geometry" />
        </mxCell>
      </root>
    </mxGraphModel>
  </diagram>
</mxfile>
